{"title":"True.Detective.Season.1.Complete.HDTV.x264-SCENE","uid":10074934,"size":3115672281,"categoryP":"video","categoryS":"tv_shows","magnet":"?xt=urn:btih:d3f8e0eb717f46f4175ff5ddc5e8f41377e2fe55&amp;dn=True.Detective.Season.1.Complete.HDTV.x264-SCENE&amp;tr=udp%3A%2F%2Ftracker.openbittorrent.com%3A80&amp;tr=udp%3A%2F%2Fopen.demonii.com%3A1337&amp;tr=udp%3A%2F%2Ftracker.coppersurfer.tk%3A6969&amp;tr=udp%3A%2F%2Fexodus.desync.com%3A6969","seeders":11,"leechers":2,"uploader":"th3d4m4g3r","files":-1,"time":1398907660,"description":"My connection is slow. Please be patient. Please seed to a least 1.5 ratio so others can enjoy the show too. Thank you.\n\n-------------------------------------------\n\nTrue.Detective.Season.1.Complete.HDTV.x264-SCENE\nAired: 2014-01-12 - 2014-03-09\n\n-------------------------------------------\n\nFiles:\n\nTrue.Detective.S01E01.HDTV.x264-2HD.mp4\nTrue.Detective.S01E02.HDTV.x264-2HD.mp4\nTrue.Detective.S01E03.HDTV.x264-KILLERS.mp4\nTrue.Detective.S01E04.HDTV.x264-2HD.mp4\nTrue.Detective.S01E05.HDTV.x264-KILLERS.mp4\nTrue.Detective.S01E06.HDTV.x264-2HD.mp4\nTrue.Detective.S01E07.HDTV.x264-KILLERS.mp4\nTrue.Detective.S01E08.HDTV.x264-2HD.mp4\n\n-------------------------------------------\n\nMediaInfo:\n\nGeneral\nComplete name                            : True.Detective.S01E01.HDTV.x264-2HD.mp4\nFormat                                   : MPEG-4\nFile size                                : 324 MiB\nDuration                                 : 59mn 44s\nOverall bit rate mode                    : Variable\nOverall bit rate                         : 758 Kbps\n\nVideo\nFormat                                   : AVC\nFormat profile                           : &lt;a class=&quot;__cf_email__&quot; href=&quot;/cdn-cgi/l/email-protection&quot; data-cfemail=&quot;551d3c323d1519667b64&quot;&gt;[email&amp;#160;protected]&lt;/a&gt;&lt;script cf-hash='f9e31' type=&quot;text/javascript&quot;&gt;\n/* &lt;![CDATA[ */!function(){try{var t=&quot;currentScript&quot;in document?document.currentScript:function(){for(var t=document.getElementsByTagName(&quot;script&quot;),e=t.length;e--;)if(t[e].getAttribute(&quot;cf-hash&quot;))return t[e]}();if(t&amp;&amp;t.previousSibling){var e,r,n,i,c=t.previousSibling,a=c.getAttribute(&quot;data-cfemail&quot;);if(a){for(e=&quot;&quot;,r=parseInt(a.substr(0,2),16),n=2;a.length-n;n+=2)i=parseInt(a.substr(n,2),16)^r,e+=String.fromCharCode(i);e=document.createTextNode(e),c.parentNode.replaceChild(e,c)}}}catch(u){}}();/* ]]&gt; */&lt;/script&gt;\nFormat settings, CABAC                   : Yes\nFormat settings, ReFrames                : 5 frames\nBit rate                                 : 634 Kbps\nMaximum bit rate                         : 11.3 Mbps\nWidth                                    : 720 pixels\nHeight                                   : 404 pixels\nDisplay aspect ratio                     : 16:9\nFrame rate mode                          : Constant\nFrame rate                               : 23.976 fps\nColor space                              : YUV\nChroma subsampling                       : 4:2:0\nBit depth                                : 8 bits\nScan type                                : Progressive\nBits/(Pixel*Frame)                       : 0.091\nStream size                              : 271 MiB (84%)\nWriting library                          : x264 core 140 r2377 1ca7bb9\nEncoding settings                        : cabac=1 / ref=5 / deblock=1:0:0 / analyse=0x3:0x113 / me=umh / subme=8 / psy=1 / psy_rd=1.00:0.00 / mixed_ref=1 / me_range=16 / chroma_me=1 / trellis=1 / 8x8dct=1 / cqm=0 / deadzone=21,11 / fast_pskip=1 / chroma_qp_offset=-2 / threads=12 / lookahead_threads=2 / sliced_threads=0 / nr=0 / decimate=1 / interlaced=0 / bluray_compat=0 / constrained_intra=0 / bframes=3 / b_pyramid=2 / b_adapt=2 / b_bias=0 / direct=3 / weightb=1 / open_gop=0 / weightp=2 / keyint=250 / keyint_min=23 / scenecut=40 / intra_refresh=0 / rc_lookahead=50 / rc=crf / mbtree=1 / crf=19.0 / qcomp=0.60 / qpmin=0 / qpmax=69 / qpstep=4 / ip_ratio=1.40 / aq=1:1.00\nMatrix coefficients                      : BT.709\n\nAudio\nFormat                                   : AAC\nFormat profile                           : LC\nBit rate mode                            : Variable\nBit rate                                 : 120 Kbps\nMaximum bit rate                         : 188 Kbps\nChannel(s)                               : 2 channels\nSampling rate                            : 48.0 KHz\nCompression mode                         : Lossy\nStream size                              : 51.1 MiB (16%)\n\n","torrent":{"xt":"urn:btih:d3f8e0eb717f46f4175ff5ddc5e8f41377e2fe55","amp;dn":"True.Detective.Season.1.Complete.HDTV.x264-SCENE","amp;tr":["udp%3A%2F%2Ftracker.openbittorrent.com%3A80","udp%3A%2F%2Fopen.demonii.com%3A1337","udp%3A%2F%2Ftracker.coppersurfer.tk%3A6969","udp%3A%2F%2Fexodus.desync.com%3A6969"],"infoHash":"d3f8e0eb717f46f4175ff5ddc5e8f41377e2fe55","infoHashBuffer":{"type":"Buffer","data":[211,248,224,235,113,127,70,244,23,95,245,221,197,232,244,19,119,226,254,85]},"announce":[],"urlList":[]}}